<svg xmlns="http://www.w3.org/2000/svg" baseProfile="basic" viewBox="0 0 48 48"><g><path d="M0,48v-48h48v48z" fill="none"></path><g><path fill="#fe8e0d" d="M43,10.67V15c0,0.45-0.15,0.86-0.4,1.2c-0.21,0.27-0.48,0.49-0.8,0.63 C41.55,16.94,41.28,17,41,17H7c-0.28,0-0.55-0.06-0.8-0.17c-0.32-0.14-0.59-0.36-0.8-0.63C5.15,15.86,5,15.45,5,15v-4.33 C5.96,9.53,7.4,8.8,9,8.8h30C40.6,8.8,42.04,9.53,43,10.67z" opacity=".1"></path><path fill="#fe8e0d" d="M43,12.16V15c0,0.45-0.15,0.86-0.4,1.2c-0.21,0.27-0.48,0.49-0.8,0.63 C41.55,16.94,41.28,17,41,17H7c-0.28,0-0.55-0.06-0.8-0.17c-0.32-0.14-0.59-0.36-0.8-0.63C5.15,15.86,5,15.45,5,15v-2.84 C5.7,10.65,7.23,9.6,9,9.6h30C40.77,9.6,42.3,10.65,43,12.16z" opacity=".2"></path><path fill="#fe8e0d" d="M42.6,14v2.2c-0.21,0.27-0.48,0.49-0.8,0.63C41.55,16.94,41.28,17,41,17H7 c-0.28,0-0.55-0.06-0.8-0.17c-0.32-0.14-0.59-0.36-0.8-0.63V14c0-1.98,1.61-3.6,3.6-3.6h30C40.99,10.4,42.6,12.02,42.6,14z" opacity=".3"></path><path fill="#fe8e0d" d="M41.8,14v2.83C41.55,16.94,41.28,17,41,17H7c-0.28,0-0.55-0.06-0.8-0.17V14 c0-1.54,1.26-2.8,2.8-2.8h30C40.54,11.2,41.8,12.46,41.8,14z" opacity=".4"></path><linearGradient id="ABRUszMME6JJEtoRlXfhna" x1="24" x2="24" y1="48.838" y2="21.053" gradientUnits="userSpaceOnUse"><stop offset="0" stop-color="#fe7d08"></stop><stop offset=".289" stop-color="#fda513"></stop><stop offset=".593" stop-color="#fdc91c"></stop><stop offset=".841" stop-color="#fcdf22"></stop><stop offset="1" stop-color="#fce724"></stop></linearGradient><path fill="url(#ABRUszMME6JJEtoRlXfhna)" d="M41,14v27c0,1.1-0.9,2-2,2H9c-1.1,0-2-0.9-2-2V14c0-1.1,0.9-2,2-2h30C40.1,12,41,12.9,41,14z"></path><linearGradient id="ABRUszMME6JJEtoRlXfhnb" x1="24" x2="24" y1="34.879" y2="5.209" gradientUnits="userSpaceOnUse"><stop offset="0" stop-color="#fce724"></stop><stop offset=".162" stop-color="#fcd820"></stop><stop offset=".472" stop-color="#fdb116"></stop><stop offset=".897" stop-color="#ff7205"></stop><stop offset="1" stop-color="#ff6201"></stop></linearGradient><path fill="url(#ABRUszMME6JJEtoRlXfhnb)" d="M39,12H9c-1.1,0-2,0.9-2,2v3h34v-3C41,12.9,40.1,12,39,12z"></path><path fill="#fe8209" d="M21,20h6c1.657,0,3-1.343,3-3v0H18v0C18,18.657,19.343,20,21,20z"></path><path fill="#fe8e0d" d="M41,14v5H7v-5c0-1.1,0.9-2,2-2h30C40.1,12,41,12.9,41,14z" opacity=".05"></path><path fill="#fe8e0d" d="M41,14v4.6H7V14c0-1.1,0.9-2,2-2h30C40.1,12,41,12.9,41,14z" opacity=".1"></path><path fill="#fe8e0d" d="M41,14v4.2H7V14c0-1.1,0.9-2,2-2h30C40.1,12,41,12.9,41,14z" opacity=".2"></path><path fill="#fe8e0d" d="M41,14v3.8H7V14c0-1.1,0.9-2,2-2h30C40.1,12,41,12.9,41,14z" opacity=".3"></path><path fill="#fe8e0d" d="M41,14v3.4H7V14c0-1.1,0.9-2,2-2h30C40.1,12,41,12.9,41,14z" opacity=".4"></path><linearGradient id="ABRUszMME6JJEtoRlXfhnc" x1="24" x2="24" y1="20.039" y2="4.421" gradientUnits="userSpaceOnUse"><stop offset="0" stop-color="#ffd8bb" stop-opacity=".4"></stop><stop offset="1" stop-color="#f4805d" stop-opacity=".3"></stop></linearGradient><path fill="url(#ABRUszMME6JJEtoRlXfhnc)" d="M7,17h34c1.105,0,2-0.895,2-2V8c0-1.105-0.895-2-2-2H7C5.895,6,5,6.895,5,8v7 C5,16.105,5.895,17,7,17z"></path><linearGradient id="ABRUszMME6JJEtoRlXfhnd" x1="24" x2="24" y1="17.015" y2="6.748" gradientUnits="userSpaceOnUse"><stop offset="0" stop-color="ivory" stop-opacity=".3"></stop><stop offset="1" stop-color="#ff9a83" stop-opacity=".4"></stop></linearGradient><path fill="url(#ABRUszMME6JJEtoRlXfhnd)" d="M41,6.5c0.827,0,1.5,0.673,1.5,1.5v7c0,0.827-0.673,1.5-1.5,1.5H7c-0.827,0-1.5-0.673-1.5-1.5 V8c0-0.827,0.673-1.5,1.5-1.5H41 M41,6H7C5.895,6,5,6.895,5,8v7c0,1.105,0.895,2,2,2h34c1.105,0,2-0.895,2-2V8 C43,6.895,42.105,6,41,6L41,6z"></path></g></g></svg>