<svg width="24" height="24" viewBox="0 0 24 24" fill="none" xmlns="http://www.w3.org/2000/svg">
<g clip-path="url(#clip0_58_25)">
<path fill-rule="evenodd" clip-rule="evenodd" d="M13.671 12.997C13.821 12.087 13.981 11.167 14.081 10.247H14.291C14.371 10.247 14.681 10.367 15.021 10.437C15.681 10.237 15.651 9.93702 15.171 9.57702C14.841 9.50368 14.5077 9.44702 14.171 9.40702C14.2257 8.62902 14.319 7.85568 14.451 7.08702C14.391 6.08702 13.661 6.25702 13.381 7.08702C13.387 7.15035 13.387 7.21368 13.381 7.27702C13.261 7.94702 13.141 8.62702 13.041 9.27702C11.911 9.21702 12.121 9.27702 9.66104 9.27702C9.66104 9.07702 9.42104 7.95702 9.28104 7.15702C9.14104 6.35702 8.49104 6.32702 8.43104 7.15702C8.43104 7.65702 8.43104 8.27702 8.51104 9.27702C7.84104 9.27702 7.63104 9.27702 5.61104 9.43702C5.50368 8.69482 5.35005 7.96005 5.15104 7.23702C4.75104 6.50702 4.00104 6.75702 4.00104 7.33702C4.17104 8.23702 4.08104 7.90702 4.35104 9.60702C3.82384 9.68403 3.28824 9.68403 2.76104 9.60702C1.76104 9.69702 1.63104 10.427 2.97104 10.547H4.50104C4.75104 12.137 4.78104 12.387 4.97104 13.317C4.42867 13.4466 3.8634 13.4466 3.32104 13.317C2.88104 13.127 2.02104 14.317 5.17104 14.107C5.28904 14.557 5.45704 14.994 5.67104 15.407C5.71919 15.4813 5.79305 15.5353 5.87849 15.5586C5.96392 15.5819 6.05494 15.5728 6.13415 15.5332C6.21335 15.4936 6.27518 15.4262 6.30781 15.3439C6.34045 15.2616 6.34159 15.1701 6.31104 15.087C6.17122 14.7677 6.07372 14.4316 6.02104 14.087C6.87104 14.027 7.29104 14.087 9.34104 14.017C9.5097 14.4543 9.62971 14.9043 9.70104 15.367C9.70104 15.4625 9.73897 15.5541 9.80648 15.6216C9.87399 15.6891 9.96556 15.727 10.061 15.727C10.1565 15.727 10.2481 15.6891 10.3156 15.6216C10.3831 15.5541 10.421 15.4625 10.421 15.367C10.4173 14.9053 10.3602 14.4456 10.251 13.997H12.571C12.391 16.247 13.911 15.397 13.371 14.867C13.261 14.737 13.371 14.097 13.441 13.927C14.071 13.837 14.311 13.847 14.621 13.787C14.931 13.727 15.141 13.017 14.761 12.987C14.381 12.957 14.271 12.997 13.671 12.997ZM5.90104 13.147C5.90104 12.837 5.74104 11.147 5.68104 10.577H8.58104C8.66104 11.3477 8.80104 12.1077 9.00104 12.857C7.96321 12.9033 6.92848 13.0034 5.90104 13.157V13.147ZM12.681 12.997C11.831 12.997 10.931 12.887 10.071 12.847C10.021 12.427 9.83104 10.847 9.78104 10.467C11.221 10.377 12.021 10.277 12.871 10.247C12.751 11.617 12.691 12.997 12.681 12.997Z" fill="#0C6FFF"/>
<path fill-rule="evenodd" clip-rule="evenodd" d="M22.7922 0.646028C21.6982 0.423597 20.5724 0.406642 19.4722 0.596028C17.8922 1.08603 18.4722 0.0460281 16.9122 4.97603C16.2522 7.47603 14.7022 15.517 14.9122 15.837C5.51221 15.987 5.37221 16.177 2.84221 15.447C2.91221 15.247 2.67221 14.707 2.65221 14.617C1.31221 8.46703 0.932209 7.92703 1.30221 6.83703C6.02433 6.05232 10.8055 5.67759 15.5922 5.71703C15.6257 5.74395 15.6642 5.76401 15.7054 5.77607C15.7466 5.78812 15.7899 5.79194 15.8326 5.7873C15.8753 5.78265 15.9167 5.76964 15.9543 5.74901C15.992 5.72837 16.0253 5.70052 16.0522 5.66703C16.0791 5.63354 16.0992 5.59508 16.1112 5.55384C16.1233 5.5126 16.1271 5.46939 16.1225 5.42667C16.1178 5.38396 16.1048 5.34258 16.0842 5.30489C16.0636 5.2672 16.0357 5.23395 16.0022 5.20703C15.4222 4.77703 4.54221 5.28703 4.63221 5.28703C3.31434 5.15185 1.98306 5.32297 0.742209 5.78703C-0.307791 6.26703 0.00220945 8.57703 0.212209 9.66703C1.00221 12.617 0.712209 11.447 1.49221 14.817C1.55221 15.127 1.56221 15.907 1.86221 16.197C3.35221 17.627 10.8622 16.587 14.7222 16.567C14.5122 17.277 14.4322 17.707 13.8222 17.877C13.1572 17.9439 12.4872 17.9439 11.8222 17.877C8.93221 18.017 6.15221 17.417 1.82221 17.877C1.73795 17.8715 1.6549 17.8994 1.59107 17.9547C1.52723 18.0099 1.48775 18.0882 1.48117 18.1723C1.4746 18.2565 1.50146 18.3399 1.55593 18.4044C1.61041 18.4689 1.68811 18.5094 1.77221 18.517C1.4404 18.6485 1.13989 18.8482 0.890119 19.1031C0.640345 19.3581 0.446869 19.6626 0.322209 19.997C-0.177791 21.377 1.20221 23.087 2.59221 23.447C5.36221 24.157 7.46221 20.307 5.35221 18.677C5.65888 18.6837 5.96554 18.707 6.27221 18.747C8.25211 19.0984 10.2706 19.1791 12.2722 18.987C10.4022 20.777 12.3322 23.427 14.7422 23.157C17.3922 22.847 17.2222 18.607 14.9522 18.227C15.6222 17.427 15.3322 16.667 16.3922 12.697C17.1526 9.75773 17.7568 6.78023 18.2022 3.77703C18.6822 3.65703 21.9122 3.95703 22.5922 3.91703C22.9679 3.8553 23.3115 3.6678 23.5667 3.38524C23.8218 3.10268 23.9735 2.74183 23.9967 2.36181C24.02 1.9818 23.9134 1.60515 23.6946 1.2936C23.4757 0.982055 23.1576 0.753077 22.7922 0.646028ZM4.94221 21.217C4.80387 21.5239 4.58607 21.7883 4.31133 21.9828C4.03659 22.1773 3.71488 22.2949 3.37946 22.3235C3.04404 22.352 2.70709 22.2905 2.40343 22.1452C2.09977 21.9999 1.84042 21.7761 1.65221 21.497C1.4809 21.3426 1.34889 21.1496 1.26715 20.9339C1.18541 20.7182 1.15629 20.4862 1.18221 20.257C1.25663 19.9263 1.43543 19.6283 1.69221 19.407C3.42221 17.877 6.00221 19.237 4.94221 21.217ZM15.7122 20.277C16.0122 23.077 12.3122 21.947 12.6322 20.277C12.8922 18.937 15.4722 18.067 15.7122 20.277ZM22.4822 2.73703C21.8022 2.82703 19.4322 2.84703 18.3522 2.98703C18.416 2.46542 18.5367 1.95236 18.7122 1.45703C18.8122 1.60703 19.4022 1.38703 19.6522 1.33703C20.6257 1.32591 21.5947 1.47109 22.5222 1.76703C22.9222 1.88703 22.8722 2.69703 22.4822 2.73703Z" fill="#020202"/>
</g>
<defs>
<clipPath id="clip0_58_25">
<rect width="24" height="24" fill="white"/>
</clipPath>
</defs>
</svg>
