<svg xmlns="http://www.w3.org/2000/svg" baseProfile="basic" viewBox="0 0 48 48"><g><path d="M0,48v-48h48v48z" fill="none"></path><g><path fill="#ff8931" d="M36.984,35.75C36.987,35.666,37,35.585,37,35.5c0-4.142-3.358-7.5-7.5-7.5h-22 c-4.12,0-7.462,3.323-7.497,7.436C0.286,35.633,0.629,35.75,1,35.75h3.025C4.019,35.666,4,35.586,4,35.5C4,33.567,5.567,32,7.5,32 s3.5,1.567,3.5,3.5c0,0.086-0.019,0.166-0.025,0.25h4.05C15.019,35.666,15,35.586,15,35.5c0-1.933,1.567-3.5,3.5-3.5 s3.5,1.567,3.5,3.5c0,0.086-0.019,0.166-0.025,0.25h4.05C26.019,35.666,26,35.586,26,35.5c0-1.933,1.567-3.5,3.5-3.5 s3.5,1.567,3.5,3.5c0,0.086-0.019,0.166-0.025,0.25H36.984z" opacity=".4"></path><path fill="#ff8931" d="M36.929,36.5c0.044-0.327,0.071-0.66,0.071-1c0-4.142-3.358-7.5-7.5-7.5h-22 C3.358,28,0,31.358,0,35.5c0,0.275,0.021,0.544,0.05,0.81C0.344,36.431,0.664,36.5,1,36.5h3.163C4.067,36.181,4,35.85,4,35.5 C4,33.567,5.567,32,7.5,32s3.5,1.567,3.5,3.5c0,0.35-0.067,0.681-0.163,1h4.325C15.067,36.181,15,35.85,15,35.5 c0-1.933,1.567-3.5,3.5-3.5s3.5,1.567,3.5,3.5c0,0.35-0.067,0.681-0.163,1h4.325C26.067,36.181,26,35.85,26,35.5 c0-1.933,1.567-3.5,3.5-3.5s3.5,1.567,3.5,3.5c0,0.35-0.067,0.681-0.163,1H36.929z" opacity=".3"></path><path fill="#ff8931" d="M36.788,37.25C36.924,36.688,37,36.104,37,35.5c0-4.142-3.358-7.5-7.5-7.5h-22 C3.358,28,0,31.358,0,35.5c0,0.563,0.072,1.108,0.19,1.635C0.451,37.203,0.719,37.25,1,37.25h3.485C4.185,36.733,4,36.141,4,35.5 C4,33.567,5.567,32,7.5,32s3.5,1.567,3.5,3.5c0,0.641-0.185,1.233-0.485,1.75h4.971C15.185,36.733,15,36.141,15,35.5 c0-1.933,1.567-3.5,3.5-3.5s3.5,1.567,3.5,3.5c0,0.641-0.185,1.233-0.485,1.75h4.971C26.185,36.733,26,36.141,26,35.5 c0-1.933,1.567-3.5,3.5-3.5s3.5,1.567,3.5,3.5c0,0.641-0.185,1.233-0.485,1.75H36.788z" opacity=".2"></path><path fill="#ff8931" d="M36.56,38c0.279-0.783,0.44-1.621,0.44-2.5c0-4.142-3.358-7.5-7.5-7.5h-22 C3.358,28,0,31.358,0,35.5c0,0.857,0.155,1.675,0.421,2.441C0.612,37.969,0.802,38,1,38h4.056C4.406,37.365,4,36.481,4,35.5 C4,33.567,5.567,32,7.5,32s3.5,1.567,3.5,3.5c0,0.981-0.406,1.865-1.056,2.5h6.111C15.406,37.365,15,36.481,15,35.5 c0-1.933,1.567-3.5,3.5-3.5s3.5,1.567,3.5,3.5c0,0.981-0.406,1.865-1.056,2.5h6.111C26.406,37.365,26,36.481,26,35.5 c0-1.933,1.567-3.5,3.5-3.5s3.5,1.567,3.5,3.5c0,0.981-0.406,1.865-1.056,2.5H36.56z" opacity=".1"></path><linearGradient id="5nPyW_SBC1vsDL3OY143ca" x1="24" x2="24" y1="-18.391" y2="30.199" gradientUnits="userSpaceOnUse"><stop offset="0" stop-color="#ff6201"></stop><stop offset=".162" stop-color="#ff7105"></stop><stop offset=".473" stop-color="#fe980f"></stop><stop offset=".898" stop-color="#fcd720"></stop><stop offset="1" stop-color="#fce724"></stop></linearGradient><path fill="url(#5nPyW_SBC1vsDL3OY143ca)" d="M41.057,21L40,21c-0.552,0-1,0.448-1,1v9h-2v-9c0-0.552-0.448-1-1-1h-4v-6.269 C32,14.327,31.673,14,31.269,14h-2.538C28.327,14,28,14.327,28,14.731V21h-6.833l-1.09-13.083C20.033,7.399,19.6,7,19.08,7H3 C2.448,7,2,7.448,2,8l0,12c0,0.548-0.44,1.007-0.988,1C0.454,20.993,0,21.444,0,22v12c0,0.552,0.448,1,1,1h38v7c0,0.552,0.448,1,1,1 h8v-3c-4.24-3.903-5.544-11.52-5.948-18.063C42.02,21.408,41.587,21,41.057,21z M16.905,21H8c-0.552,0-1-0.448-1-1v-9 c0-0.552,0.448-1,1-1h8.087c0.517,0,0.949,0.394,0.996,0.909l0.818,9C17.954,20.495,17.493,21,16.905,21z"></path><path fill="#fe910d" d="M7.5,32c1.762,0,3.205,1.306,3.45,3h4.101c0.245-1.694,1.688-3,3.45-3 s3.205,1.306,3.45,3h4.101c0.245-1.694,1.688-3,3.45-3s3.205,1.306,3.45,3h4.425c-0.259-4.127-3.682-7.4-7.875-7.4h-22 c-3.498,0-6.462,2.278-7.5,5.429V34c0,0.552,0.448,1,1,1h3.05C4.295,33.306,5.738,32,7.5,32z" opacity=".4"></path><path fill="#fe910d" d="M7.5,32c1.762,0,3.205,1.306,3.45,3h4.101c0.245-1.694,1.688-3,3.45-3 s3.205,1.306,3.45,3h4.101c0.245-1.694,1.688-3,3.45-3s3.205,1.306,3.45,3h4.825c-0.26-4.347-3.863-7.8-8.275-7.8h-22 c-3.315,0-6.17,1.953-7.5,4.765V34c0,0.552,0.448,1,1,1h3.05C4.295,33.306,5.738,32,7.5,32z" opacity=".3"></path><path fill="#fe910d" d="M7.5,32c1.762,0,3.205,1.306,3.45,3h4.101c0.245-1.694,1.688-3,3.45-3 s3.205,1.306,3.45,3h4.101c0.245-1.694,1.688-3,3.45-3s3.205,1.306,3.45,3h5.225c-0.261-4.566-4.044-8.2-8.675-8.2h-22 c-3.197,0-5.988,1.736-7.5,4.31V34c0,0.552,0.448,1,1,1h3.05C4.295,33.306,5.738,32,7.5,32z" opacity=".2"></path><path fill="#fe910d" d="M7.5,32c1.762,0,3.205,1.306,3.45,3h4.101c0.245-1.694,1.688-3,3.45-3 s3.205,1.306,3.45,3h4.101c0.245-1.694,1.688-3,3.45-3s3.205,1.306,3.45,3h5.625c-0.079-1.449-0.494-2.808-1.175-4H37v-0.644 c-1.642-2.387-4.39-3.956-7.5-3.956h-22c-3.111,0-5.858,1.569-7.5,3.956V34c0,0.552,0.448,1,1,1h3.05C4.295,33.306,5.738,32,7.5,32 z" opacity=".1"></path><path fill="#fe910d" d="M7.5,32c1.762,0,3.205,1.306,3.45,3h4.101c0.245-1.694,1.688-3,3.45-3 s3.205,1.306,3.45,3h4.101c0.245-1.694,1.688-3,3.45-3s3.205,1.306,3.45,3h6.025c-0.076-1.44-0.462-2.799-1.111-4H37v-1.309 C35.261,27.45,32.549,26,29.5,26h-22c-3.049,0-5.761,1.45-7.5,3.691V34c0,0.552,0.448,1,1,1h3.05C4.295,33.306,5.738,32,7.5,32z" opacity=".05"></path><linearGradient id="5nPyW_SBC1vsDL3OY143cb" x1="18.5" x2="18.5" y1="35.5" y2="19.656" gradientUnits="userSpaceOnUse"><stop offset="0" stop-color="#f4805d" stop-opacity=".4"></stop><stop offset="1" stop-color="#ffd8bb" stop-opacity=".4"></stop></linearGradient><path fill="url(#5nPyW_SBC1vsDL3OY143cb)" d="M29.5,28h-22C3.358,28,0,31.358,0,35.5 S3.358,43,7.5,43h22c4.142,0,7.5-3.358,7.5-7.5S33.642,28,29.5,28z M7.5,39C5.567,39,4,37.433,4,35.5S5.567,32,7.5,32 s3.5,1.567,3.5,3.5S9.433,39,7.5,39z M18.5,39c-1.933,0-3.5-1.567-3.5-3.5s1.567-3.5,3.5-3.5s3.5,1.567,3.5,3.5S20.433,39,18.5,39z M29.5,39c-1.933,0-3.5-1.567-3.5-3.5s1.567-3.5,3.5-3.5s3.5,1.567,3.5,3.5S31.433,39,29.5,39z"></path><linearGradient id="5nPyW_SBC1vsDL3OY143cc" x1="18.5" x2="18.5" y1="32.027" y2="47.216" gradientUnits="userSpaceOnUse"><stop offset="0" stop-color="ivory" stop-opacity=".2"></stop><stop offset="1" stop-color="#f4805d" stop-opacity=".4"></stop></linearGradient><path fill="url(#5nPyW_SBC1vsDL3OY143cc)" d="M29.5,28.5c3.86,0,7,3.14,7,7s-3.14,7-7,7 h-22c-3.86,0-7-3.14-7-7s3.14-7,7-7H29.5 M29.5,39.5c2.206,0,4-1.794,4-4s-1.794-4-4-4s-4,1.794-4,4S27.294,39.5,29.5,39.5 M18.5,39.5c2.206,0,4-1.794,4-4s-1.794-4-4-4s-4,1.794-4,4S16.294,39.5,18.5,39.5 M7.5,39.5c2.206,0,4-1.794,4-4s-1.794-4-4-4 s-4,1.794-4,4S5.294,39.5,7.5,39.5 M29.5,28h-22C3.358,28,0,31.358,0,35.5S3.358,43,7.5,43h22c4.142,0,7.5-3.358,7.5-7.5 S33.642,28,29.5,28L29.5,28z M29.5,39c-1.933,0-3.5-1.567-3.5-3.5s1.567-3.5,3.5-3.5s3.5,1.567,3.5,3.5S31.433,39,29.5,39L29.5,39z M18.5,39c-1.933,0-3.5-1.567-3.5-3.5s1.567-3.5,3.5-3.5s3.5,1.567,3.5,3.5S20.433,39,18.5,39L18.5,39z M7.5,39 C5.567,39,4,37.433,4,35.5S5.567,32,7.5,32s3.5,1.567,3.5,3.5S9.433,39,7.5,39L7.5,39z"></path></g></g></svg>