<svg width="24" height="24" viewBox="0 0 24 24" fill="none" xmlns="http://www.w3.org/2000/svg">
<g clip-path="url(#clip0_58_13)">
<path fill-rule="evenodd" clip-rule="evenodd" d="M14.5948 17.894C15.3348 17.834 16.0758 17.734 16.8068 17.684C17.5368 17.634 18.2378 17.504 18.9588 17.494C19.4248 17.479 19.8918 17.516 20.3488 17.604C20.3942 17.6178 20.4419 17.6221 20.489 17.6169C20.5361 17.6117 20.5817 17.5969 20.6229 17.5735C20.6641 17.5501 20.7002 17.5186 20.7289 17.4809C20.7576 17.4432 20.7783 17.4 20.7898 17.354C20.815 17.2611 20.803 17.162 20.7563 17.0778C20.7096 16.9936 20.632 16.9309 20.5398 16.903C20.0381 16.7474 19.5217 16.6435 18.9988 16.593C18.2432 16.5305 17.4849 16.5072 16.7268 16.523C15.8562 16.5477 14.9888 16.6177 14.1248 16.733C13.8948 16.733 13.6548 16.833 13.4248 16.873C13.5248 16.663 13.6248 16.443 13.7348 16.233C14.0748 15.622 14.4348 15.021 14.8048 14.421L16.8968 11.348C16.8968 11.348 17.0168 11.018 17.1268 10.808C17.2482 10.8973 17.3515 11.004 17.4368 11.128C17.6502 11.4127 17.8438 11.7093 18.0178 12.018C18.6178 12.97 19.2188 13.97 19.7488 14.971C20.1202 15.6197 20.4538 16.287 20.7498 16.973C20.789 17.0564 20.8583 17.1219 20.9437 17.1564C21.0292 17.1908 21.1245 17.1917 21.2106 17.1588C21.2966 17.1259 21.3671 17.0616 21.4077 16.979C21.4484 16.8963 21.4563 16.8013 21.4298 16.713C21.1298 15.812 20.7498 14.901 20.3498 14.01C19.9498 13.119 19.4898 12.25 19.0488 11.408C18.7751 10.8768 18.4209 10.3911 17.9988 9.96801C17.7271 9.70776 17.3723 9.55162 16.9968 9.52701C16.8867 9.52307 16.7771 9.54447 16.6766 9.58954C16.576 9.63462 16.4872 9.70218 16.4168 9.78701C16.2135 10.0637 16.0268 10.3503 15.8568 10.647C15.5068 11.178 15.1558 11.709 14.8558 12.259C14.5558 12.809 14.2558 13.38 13.9948 13.97C13.7348 14.56 13.4848 15.041 13.2448 15.582C13.0048 16.122 12.8338 16.582 12.6538 17.052C12.2438 17.143 12.2438 17.143 11.8438 17.253C11.4438 17.363 11.4828 17.733 11.7238 17.963C11.9328 18.072 12.1718 18.107 12.4038 18.063C13.1138 17.973 13.8638 17.974 14.5948 17.894Z" fill="#0C6FFF"/>
<path fill-rule="evenodd" clip-rule="evenodd" d="M23.6032 14.971C23.6032 13.801 23.5532 12.639 23.5132 11.468C23.4432 9.73802 23.3432 7.99602 23.2832 6.26402C23.2832 5.46402 23.2832 4.50302 23.1832 3.60202C23.1155 2.94501 22.9071 2.31029 22.5722 1.74102C22.4448 1.55573 22.2819 1.39757 22.0929 1.2757C21.9039 1.15383 21.6926 1.07066 21.4712 1.03102C20.7236 0.94784 19.9702 0.927769 19.2192 0.971017C17.6982 0.960017 14.1552 0.860017 12.6442 0.880017C11.4632 0.880017 11.6432 1.65002 12.7642 1.67002C14.2452 1.67002 17.6582 1.83002 19.1492 1.96002C19.6092 1.96002 20.3492 1.96002 20.9802 2.02002C21.1103 2.01914 21.2389 2.04743 21.3566 2.1028C21.4742 2.15818 21.578 2.23924 21.6602 2.34002C21.9032 2.78002 22.0432 3.27002 22.0712 3.77102C22.1166 4.62568 22.1166 5.47968 22.0712 6.33302L22.3712 15.02C22.3712 16.391 22.4812 17.602 22.5012 18.873V21.556C20.1402 21.446 18.0882 21.346 15.9562 21.346C14.5062 21.346 13.7152 21.346 12.0632 21.476C11.5132 21.586 11.4532 22.276 12.0632 22.226C13.7152 22.136 14.5152 22.156 15.9662 22.226C18.2482 22.286 20.4202 22.476 22.9722 22.666C23.1221 22.6217 23.2541 22.5311 23.3493 22.4071C23.4446 22.2832 23.4981 22.1323 23.5022 21.976C23.5022 21.576 23.5922 20.585 23.5922 20.545C23.6522 19.755 23.6622 19.023 23.6622 18.303C23.6622 17.233 23.6022 16.181 23.6022 14.97" fill="#020202"/>
<path fill-rule="evenodd" clip-rule="evenodd" d="M11.243 20.456C11.243 19.766 11.093 16.112 11.033 15.512C11.4467 15.4074 11.8195 15.181 12.103 14.862C12.2557 14.6554 12.3757 14.4317 12.463 14.191C12.5683 13.8644 12.635 13.5307 12.663 13.19C12.663 12.87 12.714 12.55 12.714 12.19C12.7084 11.8547 12.6816 11.52 12.634 11.188C12.5912 10.4889 12.4533 9.79887 12.224 9.13703C11.223 6.79503 10.843 8.37603 11.173 5.49403C11.203 5.08403 11.203 4.67369 11.173 4.26303C11.173 3.85303 11.173 3.44303 11.113 3.04203C11.053 2.64203 10.853 0.570028 10.823 0.310028C10.8093 0.222941 10.7649 0.14361 10.6979 0.0863236C10.6309 0.0290367 10.5456 -0.00244141 10.4575 -0.00244141C10.3693 -0.00244141 10.2841 0.0290367 10.2171 0.0863236C10.1501 0.14361 10.1057 0.222941 10.092 0.310028C10.092 0.580028 9.98199 2.65103 9.97199 3.16203C9.96199 3.67303 9.99199 3.96203 9.99199 4.40203V5.62403C10.042 6.29403 10.102 6.95403 10.162 7.62503L10.042 7.69503C9.64199 8.02003 9.33499 8.44503 9.15199 8.92603C8.93572 9.43432 8.79069 9.97005 8.72099 10.518C8.63299 11.306 8.59966 12.0967 8.62099 12.89C8.61966 13.2794 8.65299 13.666 8.72099 14.05C8.78499 14.364 8.91399 14.661 9.10099 14.921C9.23851 15.102 9.41153 15.253 9.60944 15.3648C9.80736 15.4765 10.026 15.5467 10.252 15.571C10.192 16.312 10.102 17.103 10.052 17.944V19.264C10.052 19.705 10.052 20.145 10.102 20.586C10.1693 21.6234 10.2927 22.654 10.472 23.678C10.4868 23.7735 10.5375 23.8597 10.6137 23.9192C10.6898 23.9786 10.7858 24.0068 10.882 23.998C10.9294 23.9931 10.9753 23.9787 11.0171 23.9559C11.0589 23.933 11.0958 23.9021 11.1256 23.8649C11.1553 23.8277 11.1774 23.7849 11.1905 23.7391C11.2036 23.6933 11.2075 23.6454 11.202 23.598C11.162 23.158 11.232 20.826 11.242 20.456M10.582 14.401C10.4885 14.4067 10.3949 14.3897 10.3094 14.3514C10.2239 14.3131 10.149 14.2546 10.091 14.181C10.0102 14.0521 9.95263 13.9099 9.92099 13.761C9.84984 13.449 9.81296 13.1301 9.81099 12.81C9.72895 12.0757 9.69222 11.3369 9.70099 10.598C9.73499 10.123 9.83199 9.65503 9.99099 9.20703C10.351 8.20603 11.201 8.59703 11.502 9.53703C11.6595 10.1447 11.7368 10.7703 11.732 11.398C11.7467 11.682 11.7467 11.9657 11.732 12.249C11.7133 12.525 11.68 12.7984 11.632 13.069C11.5976 13.2729 11.5474 13.4739 11.482 13.67C11.434 13.826 11.352 13.97 11.242 14.09C11.1597 14.1849 11.0585 14.2615 10.9448 14.3149C10.8311 14.3683 10.7075 14.3973 10.582 14.4" fill="#020202"/>
<path fill-rule="evenodd" clip-rule="evenodd" d="M20.1398 5.964C20.1062 5.99745 20.0796 6.03719 20.0614 6.08095C20.0432 6.12471 20.0339 6.17162 20.0339 6.219C20.0339 6.26638 20.0432 6.3133 20.0614 6.35706C20.0796 6.40082 20.1062 6.44056 20.1398 6.474C20.2257 6.57535 20.2889 6.69392 20.3251 6.82174C20.3613 6.94956 20.3697 7.08366 20.3498 7.215C20.3398 7.32028 20.3022 7.42104 20.2407 7.50709C20.1792 7.59314 20.0961 7.66141 19.9998 7.705C19.7225 7.81205 19.4209 7.83975 19.1288 7.785C18.8044 7.74865 18.4893 7.65378 18.1988 7.505C17.8878 7.375 17.9078 7.065 18.0378 6.815C18.1203 6.61747 18.2591 6.4486 18.4369 6.32945C18.6147 6.2103 18.8237 6.14615 19.0378 6.145C19.115 6.17188 19.1995 6.16821 19.2741 6.13474C19.3486 6.10127 19.4076 6.04054 19.4388 5.965C19.4493 5.92487 19.4517 5.88302 19.4458 5.84193C19.4399 5.80085 19.4258 5.76137 19.4044 5.72584C19.3829 5.6903 19.3546 5.65944 19.321 5.63508C19.2874 5.61071 19.2492 5.59335 19.2088 5.584C18.7678 5.49469 18.3097 5.55665 17.9083 5.75988C17.5069 5.96311 17.1858 6.29573 16.9968 6.704C16.9108 6.87055 16.8588 7.05257 16.844 7.23943C16.8292 7.42629 16.8517 7.61423 16.9104 7.79226C16.9691 7.97029 17.0626 8.13483 17.1856 8.27627C17.3086 8.41771 17.4586 8.53321 17.6268 8.616C18.0588 8.845 18.5318 8.981 19.0188 9.016C19.5423 9.06129 20.0669 8.94246 20.5198 8.676C20.7524 8.52669 20.9415 8.3186 21.0679 8.07277C21.1944 7.82694 21.2536 7.55209 21.2398 7.276C21.2367 7.02903 21.1817 6.78546 21.0783 6.56114C20.975 6.33682 20.8255 6.13677 20.6398 5.974C20.6079 5.94008 20.5695 5.91287 20.5269 5.89397C20.4844 5.87507 20.4384 5.86485 20.3919 5.86392C20.3453 5.86299 20.299 5.87136 20.2557 5.88855C20.2124 5.90573 20.173 5.93139 20.1398 5.964ZM6.77977 4.703C6.62444 4.713 6.47077 4.733 6.31877 4.763C4.88777 5.063 4.98777 5.243 4.98777 5.393C4.98777 5.543 4.98777 5.794 6.43777 5.924C6.59777 5.93867 6.75811 5.93867 6.91877 5.924C7.07677 5.91 7.23344 5.88667 7.38877 5.854C8.67077 5.564 8.83077 5.424 8.79077 5.144C8.75077 4.864 8.60077 4.774 7.28977 4.704L6.77977 4.703ZM8.43977 7.966C8.43209 7.86961 8.38697 7.78005 8.31408 7.7165C8.24119 7.65295 8.14632 7.62047 8.04977 7.626H6.20977C5.95201 7.63513 5.69495 7.6585 5.43977 7.696C5.17977 7.724 4.92277 7.76734 4.66877 7.826C4.07877 7.966 3.51777 8.156 2.92677 8.296C2.84356 8.30605 2.76762 8.34834 2.71526 8.41379C2.6629 8.47924 2.63831 8.56262 2.64677 8.646C2.64513 8.6902 2.65297 8.73423 2.66976 8.77515C2.68655 8.81606 2.71189 8.85291 2.7441 8.88322C2.7763 8.91353 2.81462 8.9366 2.85647 8.95088C2.89833 8.96516 2.94276 8.97031 2.98677 8.966C3.68744 9.012 4.38811 9.012 5.08877 8.966C5.49944 8.928 5.9061 8.86467 6.30877 8.776C6.90977 8.656 7.49077 8.486 8.10077 8.366C8.14942 8.36222 8.19684 8.34885 8.2403 8.32667C8.28376 8.30448 8.3224 8.27392 8.354 8.23675C8.3856 8.19957 8.40954 8.15651 8.42443 8.11004C8.43932 8.06358 8.44487 8.01462 8.44077 7.966M4.90777 13.34C5.04777 13.3547 5.18777 13.3547 5.32777 13.34C5.4736 13.3291 5.61779 13.3023 5.75777 13.26C6.97877 12.94 7.05877 12.8 7.03877 12.54C7.01877 12.28 6.85877 12.18 5.63877 12.119H5.21777C5.07904 12.128 4.94163 12.1515 4.80777 12.189C3.48677 12.509 3.54677 12.699 3.55677 12.839C3.56677 12.979 3.41777 13.219 4.90777 13.34ZM2.11577 15.051C2.11575 15.0926 2.12409 15.1337 2.14029 15.172C2.15649 15.2103 2.18022 15.2449 2.21008 15.2738C2.23993 15.3027 2.27529 15.3254 2.31407 15.3403C2.35284 15.3553 2.39423 15.3623 2.43577 15.361C3.06577 15.441 3.66577 15.541 4.28677 15.581H5.06677C5.33544 15.577 5.60277 15.557 5.86877 15.521C6.47877 15.451 7.07877 15.341 7.68977 15.251C7.73747 15.2511 7.78467 15.2414 7.8285 15.2226C7.87232 15.2038 7.91183 15.1762 7.94461 15.1415C7.97738 15.1069 8.00273 15.0659 8.0191 15.0211C8.03546 14.9763 8.0425 14.9286 8.03977 14.881C8.03848 14.8337 8.02788 14.7872 8.00858 14.744C7.98928 14.7008 7.96166 14.6618 7.9273 14.6293C7.89294 14.5968 7.85251 14.5714 7.80832 14.5545C7.76413 14.5377 7.71705 14.5297 7.66977 14.531C7.04977 14.481 6.43877 14.401 5.82777 14.371H5.03777C4.77797 14.3565 4.51757 14.3565 4.25777 14.371C3.63677 14.441 3.04577 14.581 2.42577 14.681C2.38056 14.6834 2.33632 14.6951 2.29582 14.7153C2.25531 14.7355 2.21941 14.7639 2.19033 14.7986C2.16125 14.8333 2.13963 14.8736 2.1268 14.9171C2.11397 14.9605 2.11022 15.0061 2.11577 15.051ZM7.43977 17.373C7.25658 17.3629 7.07297 17.3629 6.88977 17.373C6.69976 17.3575 6.50879 17.3575 6.31877 17.373C4.52677 17.683 4.74777 18.033 4.74777 18.063C4.74777 18.093 4.74777 18.394 6.35777 18.544C6.53777 18.5593 6.71811 18.5593 6.89877 18.544C7.07611 18.554 7.25277 18.554 7.42877 18.544C8.86077 18.394 9.06077 18.374 9.07077 18.044C9.08077 17.714 8.90077 17.564 7.43977 17.374" fill="#0C6FFF"/>
<path fill-rule="evenodd" clip-rule="evenodd" d="M8.1 21.917C6.89546 21.873 5.68942 21.893 4.487 21.977C4.00133 21.9844 3.51599 21.9476 3.037 21.867C1.335 21.587 1.435 21.567 1.505 19.725L1.565 14.561V10.017C1.565 8.47702 1.645 7.01502 1.755 5.47402C1.76833 4.72002 1.845 3.97268 1.985 3.23202C2.047 2.82502 2.245 2.45202 2.545 2.17202C2.64671 2.10371 2.76398 2.0621 2.886 2.05102C3.176 2.03568 3.466 2.03568 3.756 2.05102C4.50134 2.02702 5.24567 2.04368 5.989 2.10102C6.47434 2.14768 6.951 2.23768 7.419 2.37102C7.461 2.38963 7.50652 2.39899 7.55246 2.39844C7.5984 2.3979 7.64368 2.38747 7.68523 2.36786C7.72678 2.34826 7.76362 2.31993 7.79324 2.28482C7.82287 2.24971 7.84459 2.20863 7.85692 2.16437C7.86925 2.12012 7.87191 2.07372 7.86472 2.02835C7.85752 1.98297 7.84064 1.93968 7.81522 1.90141C7.7898 1.86314 7.75644 1.8308 7.71741 1.80657C7.67837 1.78234 7.63458 1.76681 7.589 1.76102C7.09262 1.58914 6.57995 1.46851 6.059 1.40102C5.29539 1.30343 4.52677 1.25 3.757 1.24102C3.377 1.21035 2.99667 1.21035 2.616 1.24102C2.401 1.27302 2.196 1.35102 2.016 1.47102C1.53901 1.84896 1.19814 2.37203 1.045 2.96102C0.862895 3.74739 0.749138 4.54804 0.705002 5.35402C0.536121 6.88709 0.422714 8.42576 0.365002 9.96702C0.304002 11.518 0.365002 13.03 0.365002 14.581L0.435002 19.715C0.401986 20.2282 0.401986 20.7429 0.435002 21.256C0.446002 21.489 0.530002 21.713 0.675002 21.896C0.925002 22.159 1.233 22.358 1.575 22.477C2.019 22.6197 2.47267 22.7164 2.936 22.767C3.47041 22.8317 4.00927 22.8518 4.547 22.827C5.69008 22.6977 6.83964 22.6343 7.99 22.637C8.0381 22.6425 8.08681 22.6383 8.13323 22.6246C8.17965 22.6108 8.22282 22.5879 8.26016 22.5571C8.29751 22.5263 8.32825 22.4882 8.35056 22.4453C8.37287 22.4023 8.38628 22.3553 8.39 22.307C8.40158 22.2171 8.37782 22.1262 8.32373 22.0535C8.26964 21.9807 8.18944 21.9318 8.1 21.917Z" fill="#020202"/>
</g>
<defs>
<clipPath id="clip0_58_13">
<rect width="24" height="24" fill="white"/>
</clipPath>
</defs>
</svg>
