<svg width="24" height="24" viewBox="0 0 24 24" fill="none" xmlns="http://www.w3.org/2000/svg">
<g clip-path="url(#clip0_58_20)">
<path fill-rule="evenodd" clip-rule="evenodd" d="M8.3152 12.901C8.3032 12.8395 8.2702 12.7841 8.22186 12.7443C8.17352 12.7045 8.11283 12.6827 8.0502 12.6827C7.98757 12.6827 7.92688 12.7045 7.87854 12.7443C7.83019 12.7841 7.7972 12.8395 7.7852 12.901C7.76298 13.2559 7.86588 13.6073 8.076 13.8942C8.28611 14.181 8.59015 14.3852 8.9352 14.471C9.8352 14.641 10.3252 13.421 10.3352 12.471C10.324 11.8555 10.2772 11.2411 10.1952 10.631C10.7352 10.631 10.9252 10.631 11.0152 10.441C11.1052 10.251 11.0152 10.151 10.6952 10.071C10.4146 10.0175 10.1306 9.98407 9.8452 9.97101C9.50636 9.97234 9.16951 10.0229 8.8452 10.121L8.1352 10.341C7.8952 10.451 7.9052 10.621 7.9452 10.701C8.1352 11.101 9.4752 10.701 9.5852 10.701C9.68339 11.2668 9.68339 11.8452 9.5852 12.411C9.3452 14.521 8.3552 13.501 8.3152 12.901ZM13.6562 10.511C13.6562 10.511 13.7362 10.511 13.7362 10.591C13.7273 10.6288 13.7302 10.6685 13.7445 10.7046C13.7588 10.7407 13.7838 10.7716 13.8162 10.793C13.8375 10.8067 13.8613 10.8162 13.8862 10.821C14.1262 10.821 14.2462 10.431 13.8862 10.191C13.6455 10.0696 13.3778 10.0115 13.1084 10.022C12.8391 10.0324 12.5768 10.1113 12.3462 10.251C12.2194 10.3093 12.1074 10.3954 12.0185 10.5029C11.9295 10.6103 11.8658 10.7365 11.8322 10.8719C11.7986 11.0073 11.7959 11.1485 11.8243 11.2851C11.8527 11.4217 11.9114 11.5502 11.9962 11.661C12.3762 12.181 13.4962 12.471 13.5262 12.841C13.5562 13.211 13.4362 13.601 13.1962 13.721C13.0381 13.7984 12.8624 13.8327 12.6868 13.8204C12.5112 13.8081 12.342 13.7497 12.1962 13.651C12.1766 13.6311 12.1533 13.6152 12.1276 13.6044C12.1018 13.5936 12.0741 13.588 12.0462 13.588C12.0183 13.588 11.9906 13.5936 11.9648 13.6044C11.9391 13.6152 11.9158 13.6311 11.8962 13.651C11.3062 14.151 14.2062 15.261 14.2162 12.831C14.2162 11.901 12.8862 11.631 12.5562 11.241C12.2262 10.851 13.2262 10.351 13.6562 10.511ZM15.7062 5.61001C15.4852 5.61161 15.2644 5.59488 15.0462 5.56001C15.1062 5.34001 15.1962 5.08001 15.2862 4.80001C15.7162 3.38001 15.9262 1.89001 14.7862 0.930012C14.7333 0.888574 14.6669 0.868349 14.5998 0.87329C14.5328 0.87823 14.4701 0.907981 14.4238 0.956729C14.3776 1.00548 14.3512 1.06972 14.3498 1.1369C14.3483 1.20408 14.372 1.26937 14.4162 1.32001C15.5962 2.60001 14.1462 4.37001 13.9962 5.71001C13.8462 7.05001 17.0662 6.61001 18.1762 6.10001L19.8662 5.39001C19.9361 5.3534 19.9916 5.29422 20.0237 5.22208C20.0558 5.14994 20.0625 5.06908 20.0428 4.99263C20.0231 4.91618 19.9782 4.84863 19.9152 4.80095C19.8523 4.75328 19.7751 4.72828 19.6962 4.73001C17.5762 5.50001 17.4862 5.65001 15.7062 5.61001Z" fill="#020202"/>
<path fill-rule="evenodd" clip-rule="evenodd" d="M15.8761 0.06C14.4961 0 15.1261 0 5.99507 0C5.90887 0 5.82621 0.034241 5.76526 0.0951903C5.70431 0.15614 5.67007 0.238805 5.67007 0.325C5.67007 0.411195 5.70431 0.49386 5.76526 0.55481C5.82621 0.615759 5.90887 0.65 5.99507 0.65C14.5061 0.72 14.7561 0.65 15.8161 0.81C16.8761 0.97 19.5661 3.46 20.2471 4.51C20.3901 4.684 20.4771 4.897 20.4971 5.12C20.3971 6.66 19.7571 11.122 19.4971 12.202C19.2371 13.282 19.0471 14.002 18.8671 14.912C18.7971 15.272 18.3471 19.512 17.2171 20.062C15.6271 20.833 13.8471 20.322 12.2161 20.462C10.6939 20.6084 9.16529 20.6788 7.63607 20.673C2.23407 20.483 2.48407 20.563 1.02407 19.863C2.35407 18.053 3.24407 13.862 3.71407 11.412C4.24407 8.712 4.06407 5.961 4.27407 3.24C4.27407 2.77 4.74407 0.24 3.97407 0.62C3.66407 0.76 3.76407 1.22 3.76407 1.43C3.76407 2.78 3.43407 8.021 3.35407 8.891C2.95769 12.1585 2.12354 15.3579 0.874068 18.403C0.714068 18.703 0.524068 18.993 0.344068 19.273C0.19978 19.4427 0.0848644 19.6354 0.00406789 19.843C-0.0110784 19.9985 0.0220786 20.1549 0.0990233 20.2909C0.175968 20.4269 0.29296 20.5359 0.434068 20.603C1.05852 20.9559 1.73284 21.2121 2.43407 21.363C5.70507 21.686 8.99807 21.729 12.2761 21.493C13.9661 21.343 15.8461 21.883 17.6861 20.983C19.3661 20.163 19.7461 15.733 19.8661 15.103C20.0361 14.192 20.2771 13.302 20.4571 12.402C20.6371 11.502 21.2471 6.901 21.3371 5.161C21.4171 3.651 17.2661 0.17 15.8761 0.06Z" fill="#020202"/>
<path fill-rule="evenodd" clip-rule="evenodd" d="M23.0873 5.81C22.9873 7.351 22.1473 13.522 21.9273 14.562C21.7073 15.602 21.4773 16.362 21.2973 17.272C21.2273 17.632 20.7773 21.873 19.6473 22.423C18.0573 23.183 16.2773 22.683 14.6473 22.823C13.6463 22.913 11.4063 23.073 10.0653 23.033C4.91529 22.843 4.92529 23.033 3.66529 22.463C2.93529 22.173 2.75529 22.873 3.20529 23.183C3.7211 23.4872 4.29864 23.6718 4.89529 23.723C8.16272 24.0461 11.452 24.0862 14.7263 23.843C16.4163 23.703 18.2963 24.243 20.1363 23.343C21.8173 22.523 22.2073 18.093 22.3173 17.463C22.4873 16.553 22.7273 15.663 22.9073 14.763C23.0873 13.863 23.9173 7.68 23.9973 6C24.0473 5.06 23.1973 4.92 23.0873 5.81Z" fill="#0C6FFF"/>
</g>
<defs>
<clipPath id="clip0_58_20">
<rect width="24" height="24" fill="white"/>
</clipPath>
</defs>
</svg>
