<svg xmlns="http://www.w3.org/2000/svg" baseProfile="basic" viewBox="0 0 48 48"><g><path d="M0,48v-48h48v48z" fill="none"></path><g><linearGradient id="P37J9banuQo0uWj5WDhDna" x1="16.495" x2="58.27" y1="21.698" y2="51.05" gradientUnits="userSpaceOnUse"><stop offset="0" stop-color="#fce724"></stop><stop offset=".311" stop-color="#fdbd19"></stop><stop offset="1" stop-color="#ff6201"></stop></linearGradient><path fill="url(#P37J9banuQo0uWj5WDhDna)" d="M33,45.016v-3.368l4.334,0.182c3.239,0.093,4.071-1.621,4.26-4.365l-0.378-5.655l2.743-1.135 c0.946-0.378,1.324-1.513,0.757-2.459l-3.5-5.865C40.648,15.163,36.58,8.163,26.081,8.163C15.297,8.163,10,16.109,10,24.244 c0,3.5,1.23,6.527,3.122,9.081C14.824,35.689,16,38.162,16,41v4.016C16,45.56,16.44,46,16.984,46h15.033 C32.56,46,33,45.56,33,45.016z"></path><path fill="#f47f16" d="M25.739,9.87l-0.531-0.136c-0.083-0.217-0.171-0.431-0.266-0.642l0.282-0.478 c0.081-0.136,0.147-0.278,0.204-0.422C15.093,8.514,10,16.278,10,24.244c0,0.786,0.084,1.539,0.203,2.277 C10.732,27.418,11.697,28,12.779,28h2.443c1.374,0,2.569-0.93,2.907-2.26l0.136-0.533c0.219-0.083,0.435-0.172,0.648-0.268 l0.46,0.275c1.186,0.708,2.69,0.522,3.662-0.452l1.729-1.729c0.97-0.973,1.157-2.476,0.456-3.652l-0.28-0.472 c0.096-0.213,0.185-0.429,0.268-0.648l0.525-0.131C27.068,17.792,28,16.596,28,15.221v-2.443C28,11.403,27.07,10.208,25.739,9.87z" opacity=".05"></path><path fill="#f47f16" d="M25.641,10.258l-0.745-0.19c-0.112-0.342-0.248-0.673-0.409-0.99l0.394-0.666 c0.038-0.064,0.063-0.131,0.095-0.197C14.946,8.746,10,16.396,10,24.244c0,0.218,0.029,0.425,0.039,0.639 c0.012,0.004,0.022,0.01,0.034,0.014l0.185,0.739c0.293,1.156,1.33,1.964,2.521,1.964h2.443c1.191,0,2.227-0.806,2.52-1.958 l0.19-0.747c0.345-0.112,0.678-0.25,0.997-0.412l0.65,0.389c1.027,0.613,2.332,0.453,3.174-0.392l1.729-1.729 c0.84-0.843,1.003-2.145,0.395-3.165l-0.393-0.661c0.162-0.319,0.3-0.652,0.412-0.998l0.739-0.185 c1.156-0.293,1.964-1.33,1.964-2.521v-2.443C27.6,11.587,26.794,10.551,25.641,10.258z" opacity=".1"></path><path fill="#f47f16" d="M25.542,10.645l-0.959-0.244c-0.141-0.468-0.326-0.916-0.553-1.338l0.489-0.827 C14.793,8.97,10,16.514,10,24.244c0,0.069,0.011,0.133,0.012,0.201c0.131,0.048,0.26,0.1,0.395,0.14l0.239,0.953 c0.247,0.978,1.125,1.662,2.133,1.662h2.443c1.007,0,1.884-0.682,2.132-1.657l0.244-0.96c0.47-0.141,0.921-0.328,1.346-0.557 l0.84,0.503c0.869,0.519,1.973,0.383,2.685-0.332l1.729-1.729c0.711-0.713,0.849-1.815,0.335-2.679l-0.505-0.85 c0.229-0.425,0.415-0.876,0.556-1.347l0.953-0.239c0.978-0.247,1.662-1.125,1.662-2.133v-2.443 C27.2,11.77,26.518,10.893,25.542,10.645z" opacity=".2"></path><path fill="#f47f16" d="M25.444,11.033l-1.172-0.299c-0.169-0.593-0.403-1.158-0.697-1.687l0.462-0.781 C14.722,9.199,10.1,16.495,10.009,24.019c0.24,0.094,0.482,0.183,0.732,0.254l0.293,1.167c0.202,0.8,0.921,1.36,1.746,1.36h2.443 c0.824,0,1.542-0.558,1.744-1.356l0.299-1.173c0.596-0.17,1.164-0.406,1.695-0.702l1.03,0.616c0.71,0.424,1.614,0.313,2.197-0.271 l1.728-1.728c0.582-0.583,0.695-1.485,0.274-2.192l-0.617-1.039c0.296-0.531,0.531-1.099,0.7-1.696l1.167-0.293 c0.8-0.202,1.36-0.921,1.36-1.746v-2.443C26.8,11.953,26.242,11.236,25.444,11.033z" opacity=".3"></path><path fill="#f47f16" d="M25.345,11.421l-1.386-0.353c-0.198-0.719-0.481-1.401-0.841-2.035l0.41-0.692 c-8.797,1.125-13.253,8.028-13.502,15.261c0.34,0.14,0.69,0.26,1.049,0.359l0.347,1.381c0.157,0.622,0.716,1.058,1.358,1.058h2.443 c0.641,0,1.199-0.434,1.357-1.055l0.353-1.387c0.722-0.199,1.407-0.483,2.044-0.846l1.22,0.73c0.552,0.33,1.255,0.243,1.709-0.211 l1.728-1.728c0.453-0.453,0.54-1.155,0.213-1.705l-0.73-1.228c0.362-0.637,0.646-1.323,0.844-2.045l1.381-0.347 c0.622-0.157,1.058-0.716,1.058-1.358v-2.443C26.4,12.137,25.966,11.578,25.345,11.421z" opacity=".4"></path><path fill="#ff8f43" d="M11.409,23.649l0.401,1.595C11.922,25.688,12.321,26,12.78,26h2.443 c0.457,0,0.856-0.31,0.969-0.753l0.407-1.6c0.848-0.228,1.651-0.561,2.393-0.991l1.131,0.677l3.184-3.257l-0.648-1.09 c0.429-0.743,0.761-1.546,0.989-2.394l1.595-0.401C25.688,16.078,26,15.679,26,15.22v-2.443c0-0.457-0.31-0.856-0.753-0.969 l-1.6-0.407c-0.227-0.844-0.558-1.643-0.985-2.383l0.842-1.421c0.002-0.004,0.003-0.008,0.005-0.012 c-9.013,1.106-13.659,7.986-14.2,15.22C9.971,23.158,10.669,23.45,11.409,23.649z" opacity=".4"></path><path fill="#ff8f43" d="M9.015,22.66c0.743,0.429,1.546,0.761,2.395,0.989l0.401,1.595 C11.922,25.688,12.321,26,12.78,26h2.443c0.457,0,0.856-0.31,0.969-0.753l0.407-1.6c0.848-0.228,1.651-0.561,2.393-0.991 l1.41,0.843c0.15,0.09,0.317,0.123,0.483,0.128l2.742-2.804c-0.013-0.145-0.046-0.289-0.124-0.42l-0.842-1.417 c0.429-0.743,0.761-1.546,0.989-2.394l1.595-0.401C25.688,16.078,26,15.679,26,15.22v-2.443c0-0.457-0.31-0.856-0.753-0.969 l-1.6-0.407c-0.227-0.844-0.558-1.643-0.985-2.383l0.842-1.421c0.144-0.244,0.162-0.525,0.088-0.784 C13.912,7.905,9.053,15.334,8.553,22.934L9.015,22.66z" opacity=".3"></path><path fill="#ff8f43" d="M9.015,22.66c0.743,0.429,1.546,0.761,2.395,0.989l0.401,1.595 C11.922,25.688,12.321,26,12.78,26h2.443c0.457,0,0.856-0.31,0.969-0.753l0.407-1.6c0.848-0.228,1.651-0.561,2.393-0.991 l1.41,0.843c0.393,0.235,0.896,0.173,1.221-0.151l1.727-1.727c0.323-0.323,0.386-0.825,0.153-1.218l-0.842-1.417 c0.429-0.743,0.761-1.546,0.989-2.394l1.595-0.401C25.688,16.078,26,15.679,26,15.22v-2.443c0-0.457-0.31-0.856-0.753-0.969 l-1.6-0.407c-0.227-0.844-0.558-1.643-0.985-2.383l0.842-1.421c0.233-0.393,0.17-0.894-0.153-1.217l-0.253-0.253 C13.003,7.456,8.112,15.476,7.785,23.391L9.015,22.66z" opacity=".2"></path><path fill="#ff8f43" d="M7.597,23.502l1.417-0.842c0.743,0.429,1.546,0.761,2.395,0.989l0.401,1.595 C11.922,25.688,12.321,26,12.78,26h2.443c0.457,0,0.856-0.31,0.969-0.753l0.407-1.6c0.848-0.228,1.651-0.561,2.393-0.991 l1.41,0.843c0.393,0.235,0.896,0.173,1.221-0.151l1.727-1.727c0.323-0.323,0.386-0.825,0.153-1.218l-0.842-1.417 c0.429-0.743,0.761-1.546,0.989-2.394l1.595-0.401C25.688,16.078,26,15.679,26,15.22v-2.443c0-0.457-0.31-0.856-0.753-0.969 l-1.6-0.407c-0.227-0.844-0.558-1.643-0.985-2.383l0.842-1.421c0.233-0.393,0.17-0.894-0.153-1.217l-0.936-0.936 C12.114,7.068,7.245,15.529,7.012,23.633C7.212,23.648,7.416,23.61,7.597,23.502z" opacity=".1"></path><path fill="#fda813" d="M18.992,22.656l1.41,0.843c0.393,0.235,0.896,0.173,1.221-0.151l1.727-1.727 c0.323-0.323,0.386-0.825,0.153-1.218l-0.842-1.417c0.429-0.743,0.761-1.546,0.989-2.394l1.595-0.401 C25.688,16.078,26,15.679,26,15.22v-2.443c0-0.457-0.31-0.856-0.753-0.969l-1.6-0.407c-0.227-0.844-0.558-1.643-0.985-2.383 l0.357-0.603c-8.286,1.296-12.574,7.819-12.975,14.752c0.441,0.19,0.894,0.356,1.365,0.482l0.401,1.595 C11.922,25.688,12.321,26,12.78,26h2.443c0.457,0,0.856-0.31,0.969-0.753l0.407-1.6C17.447,23.419,18.249,23.085,18.992,22.656z"></path><linearGradient id="P37J9banuQo0uWj5WDhDnb" x1="41.048" x2="12.783" y1="36.53" y2="12.986" gradientUnits="userSpaceOnUse"><stop offset="0" stop-color="#ffd8bb" stop-opacity=".4"></stop><stop offset="1" stop-color="#f4805d" stop-opacity=".4"></stop></linearGradient><path fill="url(#P37J9banuQo0uWj5WDhDnb)" d="M25.247,11.808l-1.6-0.407 c-0.227-0.844-0.558-1.643-0.985-2.383l0.842-1.421c0.233-0.393,0.17-0.894-0.153-1.217l-1.729-1.729 c-0.324-0.324-0.826-0.386-1.219-0.152l-1.413,0.843c-0.741-0.428-1.541-0.76-2.387-0.988l-0.41-1.602C16.079,2.31,15.68,2,15.224,2 h-2.445c-0.458,0-0.857,0.311-0.969,0.755l-0.404,1.597C10.56,4.579,9.759,4.911,9.018,5.338L7.597,4.496 C7.204,4.263,6.703,4.326,6.38,4.649L4.651,6.378C4.327,6.702,4.265,7.204,4.499,7.598l0.843,1.413 c-0.428,0.741-0.76,1.542-0.988,2.387l-1.602,0.41C2.31,11.921,2,12.32,2,12.776v2.445c0,0.458,0.311,0.857,0.755,0.969l1.597,0.404 c0.228,0.849,0.562,1.654,0.992,2.398l-0.843,1.41c-0.235,0.393-0.173,0.896,0.151,1.221l1.727,1.727 c0.323,0.323,0.825,0.386,1.218,0.153l1.417-0.842c0.743,0.429,1.546,0.761,2.395,0.989l0.401,1.595 C11.922,25.688,12.321,26,12.78,26h2.443c0.457,0,0.856-0.31,0.969-0.753l0.407-1.6c0.848-0.228,1.651-0.561,2.393-0.991l1.41,0.843 c0.393,0.235,0.896,0.173,1.221-0.151l1.727-1.727c0.323-0.323,0.386-0.825,0.153-1.218l-0.842-1.417 c0.429-0.743,0.761-1.546,0.989-2.394l1.595-0.401C25.688,16.078,26,15.679,26,15.22v-2.443C26,12.32,25.69,11.921,25.247,11.808z"></path><linearGradient id="P37J9banuQo0uWj5WDhDnc" x1="12.676" x2="29.332" y1="12.626" y2="29.906" gradientUnits="userSpaceOnUse"><stop offset="0" stop-color="#ff9a83" stop-opacity=".4"></stop><stop offset="1" stop-color="ivory" stop-opacity=".2"></stop></linearGradient><path fill="url(#P37J9banuQo0uWj5WDhDnc)" d="M15.224,2.5 c0.229,0,0.428,0.155,0.484,0.376l0.41,1.602c0.045,0.175,0.18,0.312,0.354,0.359c0.799,0.215,1.561,0.531,2.267,0.938 c0.077,0.045,0.164,0.067,0.25,0.067c0.089,0,0.177-0.024,0.256-0.071l1.413-0.843c0.077-0.046,0.166-0.071,0.256-0.071 c0.134,0,0.259,0.052,0.354,0.146l1.729,1.729c0.162,0.162,0.193,0.412,0.077,0.608l-0.842,1.421 c-0.092,0.155-0.093,0.348-0.003,0.505c0.406,0.704,0.721,1.466,0.935,2.263c0.047,0.175,0.184,0.31,0.36,0.355l1.6,0.407 c0.222,0.056,0.377,0.256,0.377,0.485v2.443c0,0.23-0.155,0.429-0.378,0.485l-1.595,0.401c-0.176,0.044-0.314,0.18-0.361,0.355 c-0.215,0.802-0.531,1.567-0.939,2.274c-0.09,0.157-0.089,0.35,0.003,0.505l0.842,1.417c0.117,0.197,0.086,0.447-0.076,0.609 l-1.727,1.727c-0.094,0.094-0.22,0.146-0.354,0.146c-0.09,0-0.179-0.025-0.256-0.071l-1.41-0.843 c-0.079-0.047-0.168-0.071-0.257-0.071c-0.086,0-0.173,0.022-0.25,0.067c-0.708,0.409-1.472,0.726-2.273,0.941 c-0.175,0.047-0.31,0.184-0.355,0.36l-0.407,1.6c-0.056,0.222-0.256,0.377-0.485,0.377H12.78c-0.23,0-0.429-0.156-0.485-0.378 l-0.401-1.595c-0.044-0.176-0.18-0.314-0.355-0.361c-0.802-0.215-1.567-0.531-2.274-0.939c-0.077-0.045-0.164-0.067-0.25-0.067 c-0.088,0-0.177,0.023-0.255,0.07l-1.417,0.842c-0.077,0.046-0.166,0.07-0.255,0.07c-0.134,0-0.259-0.052-0.354-0.146l-1.727-1.727 c-0.162-0.162-0.193-0.413-0.076-0.61l0.843-1.41c0.093-0.156,0.095-0.35,0.004-0.507c-0.41-0.709-0.727-1.475-0.942-2.277 c-0.047-0.175-0.185-0.311-0.36-0.355l-1.597-0.404C2.655,15.65,2.5,15.451,2.5,15.221v-2.445c0-0.229,0.155-0.428,0.376-0.484 l1.602-0.41c0.175-0.045,0.312-0.18,0.359-0.354c0.215-0.798,0.531-1.561,0.938-2.267C5.866,9.104,5.865,8.91,5.772,8.754 L4.929,7.341c-0.117-0.197-0.086-0.448,0.076-0.61l1.729-1.729c0.094-0.094,0.22-0.146,0.354-0.146c0.089,0,0.177,0.024,0.255,0.07 l1.421,0.842c0.079,0.047,0.167,0.07,0.255,0.07c0.086,0,0.172-0.022,0.25-0.067c0.705-0.407,1.468-0.722,2.268-0.936 c0.175-0.047,0.311-0.185,0.355-0.36l0.404-1.597C12.35,2.655,12.549,2.5,12.779,2.5H15.224 M15.224,2h-2.445 c-0.458,0-0.857,0.311-0.969,0.755l-0.404,1.597C10.56,4.579,9.759,4.911,9.018,5.338L7.597,4.496 c-0.159-0.094-0.335-0.14-0.509-0.14c-0.259,0-0.515,0.1-0.707,0.293L4.651,6.378C4.327,6.702,4.265,7.204,4.499,7.598l0.843,1.413 c-0.428,0.741-0.761,1.542-0.988,2.387l-1.602,0.41C2.31,11.921,2,12.32,2,12.776v2.445c0,0.458,0.311,0.857,0.755,0.969 l1.597,0.404c0.228,0.849,0.562,1.654,0.992,2.398l-0.843,1.41c-0.235,0.393-0.173,0.896,0.151,1.221l1.727,1.727 c0.193,0.193,0.449,0.293,0.707,0.293c0.175,0,0.352-0.046,0.511-0.14l1.417-0.842c0.743,0.429,1.546,0.761,2.395,0.989l0.401,1.595 C11.922,25.688,12.321,26,12.78,26h2.443c0.457,0,0.856-0.31,0.969-0.753l0.407-1.6c0.848-0.228,1.651-0.561,2.393-0.991l1.41,0.843 c0.159,0.095,0.337,0.142,0.513,0.142c0.259,0,0.515-0.1,0.707-0.293l1.727-1.727c0.323-0.323,0.386-0.825,0.153-1.218l-0.842-1.417 c0.429-0.743,0.761-1.546,0.989-2.394l1.595-0.401C25.688,16.078,26,15.679,26,15.22v-2.443c0-0.457-0.31-0.856-0.753-0.969 l-1.6-0.407c-0.227-0.844-0.558-1.643-0.985-2.383l0.842-1.421c0.233-0.393,0.17-0.894-0.153-1.217l-1.729-1.729 c-0.193-0.193-0.449-0.293-0.707-0.293c-0.176,0-0.353,0.046-0.512,0.141l-1.413,0.843c-0.741-0.428-1.541-0.76-2.387-0.988 l-0.41-1.602C16.079,2.31,15.68,2,15.224,2L15.224,2z"></path></g></g></svg>