<svg width="24" height="24" viewBox="0 0 24 24" fill="none" xmlns="http://www.w3.org/2000/svg">
<g clip-path="url(#clip0_58_8)">
<path d="M23.769 8.68297C23.4797 7.28912 22.9046 5.97038 22.08 4.80997C20.354 2.24297 19.465 1.48497 16.78 0.89597C15.9375 0.707614 15.0838 0.574001 14.224 0.49597C13.3606 0.415568 12.4915 0.415568 11.628 0.49597C10.9027 0.573304 10.1867 0.69997 9.48002 0.87597C9.00002 0.99397 8.53402 1.15364 8.08202 1.35497C7.24069 1.72364 6.43536 2.15964 5.66602 2.66297C4.87731 3.16828 4.15905 3.77591 3.53002 4.46997C2.80827 5.27349 2.17248 6.15026 1.63302 7.08597C1.10297 8.02656 0.700116 9.03336 0.435022 10.08C0.273439 10.7128 0.159784 11.357 0.0950224 12.007C0.00568902 12.6703 -0.0209776 13.336 0.0150224 14.004C0.118302 15.0453 0.406481 16.0598 0.866022 17C1.29787 17.9422 1.84433 18.8276 2.49302 19.636C2.86302 20.086 3.20202 20.535 3.59102 20.944C3.86969 21.2446 4.17602 21.5146 4.51002 21.754C6.10887 22.8564 7.98922 23.4795 9.93002 23.55C11.817 23.623 13.703 23.4 15.522 22.891C17.1393 22.5263 18.6605 21.8221 19.985 20.825C21.2355 19.7463 22.2806 18.4505 23.07 17C23.3423 16.4837 23.5438 15.9331 23.669 15.363C23.859 14.541 23.963 13.701 23.979 12.857C24.0416 11.4621 23.9713 10.0645 23.769 8.68297ZM23.089 12.847C23.069 13.4903 22.9894 14.126 22.85 14.754C22.7407 15.3603 22.5387 15.9462 22.251 16.491C21.5059 17.8219 20.5288 19.0089 19.366 19.996C18.1389 20.8887 16.7313 21.502 15.242 21.793C13.5361 22.2611 11.767 22.4568 10 22.373C8.27459 22.3118 6.60217 21.761 5.17802 20.785C4.9078 20.5891 4.65668 20.3681 4.42802 20.125C4.06838 19.7351 3.73499 19.3219 3.43002 18.888C2.836 18.1524 2.33334 17.3475 1.93302 16.491C1.53024 15.6596 1.27639 14.764 1.18302 13.845C1.13436 13.2596 1.13436 12.674 1.18302 12.088C1.23302 11.498 1.32636 10.9156 1.46302 10.341C1.68202 9.37297 2.03102 8.43897 2.50202 7.56497C2.98902 6.67497 3.57202 5.84197 4.23902 5.07897C4.79457 4.42922 5.43615 3.85829 6.14602 3.38197C6.87069 2.89197 7.62969 2.46264 8.42302 2.09397C8.92719 1.854 9.45597 1.66958 10 1.54397C10.56 1.4173 11.126 1.32064 11.698 1.25397C12.515 1.14797 13.341 1.12397 14.164 1.18497C14.997 1.22597 15.826 1.33997 16.64 1.52497C18.886 2.07397 19.735 2.52297 21.432 5.21897C22.1869 6.3067 22.7134 7.5361 22.98 8.83297C23.149 10.164 23.185 11.509 23.089 12.847Z" fill="#020202"/>
<path d="M13.2049 13.4859C12.9949 13.2759 12.7649 13.0859 12.5659 12.8659C12.4727 12.7563 12.3984 12.6319 12.3459 12.4979C12.2806 12.2319 12.2806 11.954 12.3459 11.6879C12.4159 11.1199 12.5759 10.5409 12.6159 10.0609C12.6759 8.78295 12.5659 7.45494 12.6159 6.14694C12.6159 5.60494 12.6559 5.06595 12.7359 4.52995C12.7431 4.4912 12.7427 4.45142 12.7345 4.41286C12.7264 4.3743 12.7107 4.33772 12.6884 4.30522C12.6661 4.27272 12.6377 4.24492 12.6046 4.22343C12.5716 4.20193 12.5346 4.18716 12.4959 4.17994C12.4578 4.1712 12.4182 4.17026 12.3797 4.17719C12.3412 4.18412 12.3045 4.19876 12.2718 4.22025C12.2391 4.24174 12.2111 4.26962 12.1895 4.30222C12.1678 4.33482 12.153 4.37147 12.1459 4.40994C11.9994 4.96394 11.8928 5.52772 11.8269 6.09695C11.6769 7.38495 11.6669 8.69295 11.4969 9.96095C11.4969 10.5109 11.2179 11.2289 11.2079 11.8779C11.2019 12.2209 11.2669 12.5609 11.3979 12.8769C11.5129 13.1259 11.6719 13.3529 11.8679 13.5459C12.0969 13.7659 12.3669 13.9459 12.6259 14.1549L14.8929 16.0219C14.9632 16.0802 15.0537 16.1081 15.1446 16.0995C15.2354 16.091 15.3192 16.0467 15.3774 15.9764C15.4356 15.9062 15.4635 15.8156 15.455 15.7248C15.4465 15.6339 15.4022 15.5502 15.3319 15.4919L13.2049 13.4859Z" fill="#0C6FFF"/>
<path d="M12.387 19.2669V18.2689C12.387 17.9589 12.337 17.6489 12.307 17.3489C12.3143 17.3048 12.3117 17.2596 12.2993 17.2166C12.2869 17.1735 12.2651 17.1339 12.2353 17.1004C12.2056 17.0669 12.1688 17.0405 12.1275 17.0232C12.0863 17.0058 12.0417 16.9978 11.997 16.9999C11.9164 16.9999 11.8391 17.0312 11.7812 17.0872C11.7234 17.1432 11.6896 17.2195 11.687 17.2999C11.687 17.5999 11.587 17.8999 11.547 18.2089C11.507 18.5179 11.547 18.6179 11.547 18.8279C11.557 19.3629 11.627 19.8959 11.757 20.4149C11.7847 20.4941 11.8399 20.5606 11.9126 20.6025C11.9853 20.6443 12.0706 20.6587 12.153 20.6429C12.2353 20.6272 12.3093 20.5824 12.3614 20.5167C12.4136 20.451 12.4404 20.3687 12.437 20.2849C12.4011 19.9468 12.3844 19.607 12.387 19.2669ZM21.213 11.3399C20.623 11.3399 20.045 11.2499 19.465 11.2799C19.0612 11.3052 18.6603 11.3654 18.267 11.4599C18.2079 11.4657 18.1519 11.4888 18.106 11.5263C18.06 11.5639 18.0263 11.6142 18.009 11.6709C17.9974 11.7089 17.9935 11.7488 17.9974 11.7883C18.0014 11.8277 18.0131 11.866 18.032 11.9009C18.06 11.9534 18.103 11.9964 18.1556 12.0243C18.2081 12.0523 18.2678 12.064 18.327 12.0579C18.617 12.0579 18.897 12.0579 19.186 12.1179H19.765C20.259 12.1059 20.7516 12.0693 21.243 12.0079C21.2891 12.0105 21.3352 12.0035 21.3786 11.9876C21.422 11.9717 21.4617 11.9471 21.4952 11.9153C21.5287 11.8835 21.5555 11.8452 21.5737 11.8028C21.592 11.7604 21.6014 11.7146 21.6014 11.6684C21.6014 11.6222 21.592 11.5765 21.5737 11.5341C21.5555 11.4916 21.5287 11.4534 21.4952 11.4216C21.4617 11.3898 21.422 11.3652 21.3786 11.3493C21.3352 11.3334 21.2891 11.3264 21.243 11.3289L21.213 11.3399ZM6.64495 11.5989C6.22162 11.5289 5.79562 11.4889 5.36696 11.4789H3.92995C3.4713 11.5142 3.01061 11.5142 2.55195 11.4789C2.5132 11.4701 2.47308 11.4691 2.43392 11.4759C2.39476 11.4827 2.35735 11.4973 2.32385 11.5187C2.29036 11.5401 2.26145 11.5679 2.23881 11.6006C2.21616 11.6332 2.20024 11.6701 2.19195 11.7089C2.17681 11.787 2.19224 11.8679 2.23504 11.9349C2.27785 12.0019 2.34477 12.0499 2.42195 12.0689C2.84195 12.1996 3.27129 12.2859 3.70995 12.3279C4.19529 12.3579 4.68129 12.3579 5.16796 12.3279C5.64696 12.3279 6.10595 12.2679 6.57495 12.3279C6.62466 12.3397 6.67634 12.3405 6.72636 12.3301C6.77638 12.3198 6.82354 12.2986 6.86451 12.2681C6.90549 12.2376 6.9393 12.1985 6.96356 12.1536C6.98782 12.1087 7.00195 12.0589 7.00495 12.0079C7.01604 11.9561 7.01486 11.9024 7.00149 11.8511C6.98812 11.7998 6.96294 11.7523 6.92797 11.7125C6.89299 11.6727 6.84918 11.6416 6.80004 11.6217C6.7509 11.6018 6.69779 11.5937 6.64495 11.5979M5.36696 7.89495C5.51362 8.03495 5.67029 8.16128 5.83695 8.27395C5.98695 8.36195 6.12662 8.46528 6.25595 8.58395C6.31142 8.65536 6.39238 8.70254 6.48186 8.71559C6.57134 8.72864 6.6624 8.70655 6.73595 8.65395C6.80806 8.59671 6.85551 8.51402 6.86853 8.42289C6.88155 8.33175 6.85915 8.23908 6.80595 8.16395C6.6637 7.93924 6.4922 7.73444 6.29595 7.55495C6.16523 7.43961 6.0247 7.33588 5.87595 7.24495C5.72595 7.15495 5.57695 7.10495 5.43695 7.01595C5.37993 6.95893 5.3026 6.92689 5.22196 6.92689C5.14131 6.92689 5.06398 6.95893 5.00695 7.01595C4.94993 7.07297 4.9179 7.15031 4.9179 7.23095C4.9179 7.31159 4.94993 7.38893 5.00695 7.44595C5.11029 7.60861 5.23029 7.75828 5.36696 7.89495ZM9.17095 5.01995C9.11943 4.92359 9.06268 4.83011 9.00096 4.73995C8.88096 4.59995 8.74196 4.48995 8.61196 4.35995C8.56819 4.29245 8.49941 4.2451 8.42074 4.22832C8.34207 4.21153 8.25995 4.22669 8.19245 4.27045C8.12496 4.31421 8.07761 4.38299 8.06082 4.46166C8.04404 4.54033 8.05919 4.62245 8.10295 4.68995C8.18962 4.91995 8.29295 5.14295 8.41295 5.35895C8.59295 5.65895 8.84195 5.89795 9.03195 6.19695C9.07439 6.27625 9.14651 6.3355 9.23254 6.36174C9.31857 6.38798 9.41149 6.37907 9.49095 6.33695C9.53134 6.31698 9.5672 6.28896 9.59634 6.25461C9.62548 6.22026 9.64728 6.18031 9.6604 6.13721C9.67351 6.09412 9.67767 6.04879 9.6726 6.00403C9.66754 5.95927 9.65337 5.91602 9.63095 5.87695C9.50429 5.57695 9.35095 5.29195 9.17095 5.01995ZM15.731 5.12895C15.821 4.99895 15.931 4.89895 16.021 4.76895C16.0836 4.67495 16.137 4.57495 16.181 4.46895C16.2476 4.27561 16.2843 4.07628 16.291 3.87095C16.3016 3.83286 16.3046 3.79306 16.2997 3.75381C16.2949 3.71457 16.2824 3.67667 16.2629 3.64228C16.2434 3.6079 16.2173 3.57771 16.186 3.55346C16.1548 3.5292 16.1191 3.51136 16.081 3.50095C16.0429 3.48887 16.0027 3.48478 15.963 3.48895C15.9233 3.49311 15.8848 3.50544 15.8501 3.52516C15.8154 3.54487 15.7851 3.57155 15.7611 3.60352C15.7372 3.63549 15.7201 3.67207 15.711 3.71095C15.641 3.81095 15.551 3.88095 15.481 3.98095C15.4368 4.04846 15.3967 4.11859 15.361 4.19095C15.2636 4.40161 15.1806 4.61761 15.112 4.83895C15.0741 4.91993 15.0697 5.01255 15.0996 5.09677C15.1296 5.18099 15.1915 5.25003 15.272 5.28895C15.3544 5.32723 15.4485 5.33194 15.5343 5.30208C15.6202 5.27222 15.6911 5.21013 15.732 5.12895M18.497 7.17595C18.707 6.99595 18.9066 6.80595 19.096 6.60595C19.1334 6.5802 19.1651 6.54699 19.1892 6.50841C19.2132 6.46983 19.229 6.4267 19.2355 6.38173C19.2421 6.33676 19.2393 6.29092 19.2273 6.24707C19.2154 6.20323 19.1945 6.16233 19.166 6.12695C19.1166 6.04908 19.0384 5.99385 18.9486 5.97325C18.8587 5.95266 18.7643 5.96836 18.686 6.01695C18.526 6.10695 18.377 6.16695 18.227 6.26695C18.1236 6.33495 18.027 6.41161 17.937 6.49695C17.7932 6.65361 17.6754 6.83219 17.588 7.02595C17.5592 7.0539 17.5364 7.08733 17.5208 7.12426C17.5052 7.16119 17.4972 7.20086 17.4972 7.24095C17.4972 7.28103 17.5052 7.32071 17.5208 7.35764C17.5364 7.39456 17.5592 7.42799 17.588 7.45595C17.644 7.51091 17.7194 7.5417 17.798 7.5417C17.8765 7.5417 17.9519 7.51091 18.008 7.45595C18.198 7.34595 18.358 7.28595 18.497 7.17595ZM19.276 14.6139C19.2006 14.5703 19.12 14.5367 19.036 14.5139C18.903 14.4991 18.7689 14.4991 18.636 14.5139C18.5617 14.4875 18.4801 14.4903 18.4078 14.5219C18.3355 14.5535 18.278 14.6114 18.247 14.6839C18.2232 14.7597 18.2285 14.8416 18.2618 14.9136C18.2951 14.9857 18.3539 15.0428 18.427 15.0739C18.557 15.1639 18.647 15.2839 18.787 15.3629C18.927 15.4429 19.206 15.5229 19.396 15.6229C19.4594 15.6697 19.5372 15.693 19.6159 15.6886C19.6946 15.6843 19.7694 15.6526 19.8273 15.5991C19.8852 15.5456 19.9226 15.4735 19.9331 15.3954C19.9437 15.3172 19.9266 15.2379 19.885 15.1709C19.8627 15.132 19.8319 15.0985 19.795 15.0729C19.6458 14.8945 19.4715 14.7398 19.276 14.6139ZM16.75 17.6899C16.6887 17.5966 16.6183 17.5095 16.54 17.4299C16.43 17.2999 16.3 17.1999 16.18 17.0799C16.1515 17.0277 16.1082 16.985 16.0555 16.9574C16.0028 16.9298 15.9431 16.9185 15.884 16.9249C15.8443 16.9293 15.8059 16.9415 15.771 16.9609C15.7042 17.0025 15.6556 17.0678 15.6352 17.1437C15.6148 17.2197 15.624 17.3005 15.661 17.3699C15.7363 17.6099 15.8363 17.8396 15.961 18.0589C16.033 18.1769 16.1163 18.2869 16.211 18.3889C16.341 18.5489 16.481 18.6779 16.6 18.8379C16.646 18.9165 16.7208 18.974 16.8086 18.9983C16.8963 19.0225 16.9901 19.0117 17.07 18.9679C17.1089 18.9452 17.1429 18.9149 17.1701 18.8788C17.1972 18.8427 17.2169 18.8016 17.2279 18.7579C17.239 18.7141 17.2413 18.6686 17.2346 18.624C17.2279 18.5794 17.2124 18.5365 17.189 18.4979C17.0697 18.2142 16.9223 17.9432 16.749 17.6889M8.05296 17.7799C7.93874 17.8572 7.82859 17.9403 7.72295 18.0289C7.65387 18.0903 7.59363 18.161 7.54395 18.2389C7.41194 18.4327 7.29493 18.6363 7.19395 18.8479C7.14617 18.9245 7.1289 19.0163 7.14557 19.105C7.16224 19.1937 7.21163 19.2729 7.28395 19.3269C7.32114 19.3533 7.36323 19.3718 7.40773 19.3816C7.45224 19.3913 7.49824 19.392 7.54301 19.3836C7.58778 19.3752 7.63041 19.3579 7.66837 19.3327C7.70632 19.3075 7.73883 19.2749 7.76395 19.2369C7.95395 19.0536 8.13362 18.8603 8.30296 18.6569C8.39829 18.4969 8.47495 18.3276 8.53295 18.1489C8.58202 18.0853 8.60379 18.0048 8.59347 17.9251C8.58316 17.8454 8.54161 17.773 8.47795 17.7239C8.4143 17.6749 8.33377 17.6531 8.25406 17.6634C8.17436 17.6737 8.10202 17.7153 8.05296 17.7789M5.50695 14.9039C5.26695 14.9039 5.03696 14.9039 4.80796 14.9839C4.64996 15.0406 4.50029 15.1139 4.35896 15.2039C4.3009 15.2148 4.24736 15.2426 4.20508 15.2838C4.16279 15.325 4.13366 15.3778 4.12136 15.4356C4.10906 15.4934 4.11414 15.5535 4.13596 15.6083C4.15777 15.6632 4.19535 15.7104 4.24395 15.7439C4.27646 15.7664 4.31306 15.7821 4.35167 15.7904C4.39028 15.7986 4.43014 15.7991 4.46895 15.7919C4.63895 15.8073 4.80862 15.8073 4.97796 15.7919C5.22329 15.7368 5.46127 15.6528 5.68695 15.5419C5.77531 15.5163 5.85003 15.457 5.89494 15.3767C5.93986 15.2964 5.95136 15.2016 5.92695 15.1129C5.89739 15.0306 5.83725 14.9629 5.75903 14.9238C5.68081 14.8847 5.59053 14.8772 5.50695 14.9029" fill="#020202"/>
</g>
<defs>
<clipPath id="clip0_58_8">
<rect width="24" height="24" fill="white"/>
</clipPath>
</defs>
</svg>
