<svg xmlns="http://www.w3.org/2000/svg" baseProfile="basic" viewBox="0 0 48 48"><g><path d="M0,48v-48h48v48z" fill="none"></path><g><path fill="#fe910d" d="M24,6c-3.997,0-7.679,1.313-10.662,3.52c0.223,0.71,0.879,1.23,1.662,1.23h18 c0.783,0,1.439-0.519,1.662-1.23C31.679,7.313,27.997,6,24,6z" opacity=".4"></path><path fill="#fe910d" d="M24,6c-4.281,0-8.202,1.504-11.287,4.002C13.1,10.883,13.978,11.5,15,11.5h18 c1.022,0,1.9-0.617,2.287-1.498C32.202,7.504,28.281,6,24,6z" opacity=".3"></path><path fill="#fe910d" d="M24,6c-4.554,0-8.706,1.697-11.872,4.489C12.67,11.53,13.747,12.25,15,12.25h18 c1.253,0,2.33-0.72,2.872-1.761C32.706,7.697,28.554,6,24,6z" opacity=".2"></path><path fill="#fe910d" d="M24,6c-4.832,0-9.206,1.915-12.435,5.016C12.261,12.197,13.533,13,15,13h18 c1.467,0,2.739-0.803,3.435-1.984C33.206,7.915,28.832,6,24,6z" opacity=".1"></path><path fill="#fe910d" d="M24,42c3.997,0,7.679-1.313,10.662-3.52c-0.223-0.71-0.879-1.23-1.662-1.23H15 c-0.783,0-1.439,0.519-1.662,1.23C16.321,40.687,20.003,42,24,42z" opacity=".4"></path><path fill="#fe910d" d="M24,42c4.281,0,8.202-1.504,11.287-4.002C34.9,37.117,34.022,36.5,33,36.5H15 c-1.022,0-1.9,0.617-2.287,1.498C15.798,40.496,19.719,42,24,42z" opacity=".3"></path><path fill="#fe910d" d="M24,42c4.554,0,8.706-1.697,11.872-4.489C35.33,36.47,34.253,35.75,33,35.75H15 c-1.253,0-2.33,0.72-2.872,1.761C15.294,40.303,19.446,42,24,42z" opacity=".2"></path><path fill="#fe910d" d="M24,42c4.832,0,9.206-1.915,12.435-5.016C35.739,35.803,34.467,35,33,35H15 c-1.467,0-2.739,0.803-3.435,1.984C14.794,40.085,19.168,42,24,42z" opacity=".1"></path><linearGradient id="VwtdzeqZ5_bHBbEz-hqjCa" x1="61.055" x2="15.901" y1="47.926" y2="18.771" gradientUnits="userSpaceOnUse"><stop offset="0" stop-color="#ff6201"></stop><stop offset=".162" stop-color="#ff7105"></stop><stop offset=".473" stop-color="#fe980f"></stop><stop offset=".898" stop-color="#fcd720"></stop><stop offset="1" stop-color="#fce724"></stop></linearGradient><path fill="url(#VwtdzeqZ5_bHBbEz-hqjCa)" d="M33,10H15c-0.552,0-1-0.448-1-1V2c0-0.552,0.448-1,1-1h18c0.552,0,1,0.448,1,1v7 C34,9.552,33.552,10,33,10z M33,38H15c-0.552,0-1,0.448-1,1v7c0,0.552,0.448,1,1,1h18c0.552,0,1-0.448,1-1v-7 C34,38.448,33.552,38,33,38z"></path><path fill="#fe910d" d="M34,39c0-0.552-0.448-1-1-1H15c-0.552,0-1,0.448-1,1v0.43 c2.881,1.871,6.31,2.969,10,2.969s7.119-1.098,10-2.969V39z" opacity=".4"></path><path fill="#fe910d" d="M34,39c0-0.552-0.448-1-1-1H15c-0.552,0-1,0.448-1,1v0.896 c2.899,1.829,6.322,2.904,10,2.904s7.101-1.075,10-2.904V39z" opacity=".3"></path><path fill="#fe910d" d="M34,39c0-0.552-0.448-1-1-1H15c-0.552,0-1,0.448-1,1v1.362 c2.916,1.788,6.333,2.838,10,2.838s7.084-1.05,10-2.838V39z" opacity=".2"></path><path fill="#fe910d" d="M34,39c0-0.552-0.448-1-1-1H15c-0.552,0-1,0.448-1,1v1.828 c2.932,1.749,6.344,2.772,10,2.772s7.068-1.024,10-2.772V39z" opacity=".1"></path><path fill="#fe910d" d="M34,39c0-0.552-0.448-1-1-1H15c-0.552,0-1,0.448-1,1v2.294 C16.946,43.004,20.355,44,24,44s7.054-0.996,10-2.706V39z" opacity=".05"></path><path fill="#fe910d" d="M14,9c0,0.552,0.448,1,1,1h18c0.552,0,1-0.448,1-1V8.57C31.119,6.698,27.69,5.6,24,5.6 S16.881,6.698,14,8.57V9z" opacity=".4"></path><path fill="#fe910d" d="M14,9c0,0.552,0.448,1,1,1h18c0.552,0,1-0.448,1-1V8.104 C31.101,6.275,27.678,5.2,24,5.2s-7.101,1.075-10,2.904V9z" opacity=".3"></path><path fill="#fe910d" d="M14,9c0,0.552,0.448,1,1,1h18c0.552,0,1-0.448,1-1V7.638C31.084,5.85,27.667,4.8,24,4.8 s-7.084,1.05-10,2.838V9z" opacity=".2"></path><path fill="#fe910d" d="M14,9c0,0.552,0.448,1,1,1h18c0.552,0,1-0.448,1-1V7.172 C31.068,5.424,27.656,4.4,24,4.4s-7.068,1.024-10,2.772V9z" opacity=".1"></path><path fill="#fe910d" d="M14,9c0,0.552,0.448,1,1,1h18c0.552,0,1-0.448,1-1V6.706C31.054,4.996,27.645,4,24,4 s-7.054,0.996-10,2.706V9z" opacity=".05"></path><linearGradient id="VwtdzeqZ5_bHBbEz-hqjCb" x1="28.622" x2="4.321" y1="29.052" y2="2.491" gradientUnits="userSpaceOnUse"><stop offset="0" stop-color="#f4805d" stop-opacity=".4"></stop><stop offset="1" stop-color="#ffd8bb" stop-opacity=".4"></stop></linearGradient><circle cx="24" cy="24" r="18" fill="url(#VwtdzeqZ5_bHBbEz-hqjCb)"></circle><linearGradient id="VwtdzeqZ5_bHBbEz-hqjCc" x1="8.054" x2="61.987" y1="24" y2="24" gradientUnits="userSpaceOnUse"><stop offset="0" stop-color="ivory" stop-opacity=".2"></stop><stop offset="1" stop-color="#f4805d" stop-opacity=".4"></stop></linearGradient><path fill="url(#VwtdzeqZ5_bHBbEz-hqjCc)" d="M24,6.5c9.65,0,17.5,7.85,17.5,17.5 S33.65,41.5,24,41.5S6.5,33.65,6.5,24S14.35,6.5,24,6.5 M24,6C14.059,6,6,14.059,6,24s8.059,18,18,18s18-8.059,18-18S33.941,6,24,6 L24,6z"></path><g><path fill="#ff7b7b" d="M33.729,13.953L33.729,13.953c-0.793-0.768-2.062-0.746-2.829,0.044l-5.936,6.125 C22.458,19.484,20,21.393,20,24c0,2.653,2.546,4.582,5.095,3.839l4.185,3.512c0.918,0.771,2.326,0.695,3.14-0.274 c0.791-0.943,0.67-2.348-0.275-3.139l-4.172-3.502c0.069-0.576-0.004-1.096-0.133-1.532l5.933-6.122 C34.541,15.988,34.523,14.724,33.729,13.953z" opacity=".05"></path><path fill="#ff7b7b" d="M33.554,14.133C33.554,14.133,33.554,14.132,33.554,14.133 c-0.436-0.422-1.045-0.556-1.573-0.406c-0.332,0.039-0.86,0.401-1.109,0.659l-5.771,5.955c-0.115-0.029-0.297,0.019-0.411,0.003 c-2.264-0.468-4.44,1.289-4.44,3.656c0,2.527,2.47,4.356,4.894,3.554l4.073,3.418c0.26,0.218,0.796,0.534,1.117,0.569 c0.659,0.167,1.406-0.042,1.895-0.625c0.455-0.543,0.551-1.268,0.315-1.865c-0.076-0.348-0.534-0.902-0.829-1.148l-3.728-3.129 c0.004-0.015-0.271-0.294-0.263-0.348c0.065-0.517,0.011-1.034-0.142-1.508c-0.009-0.023,0.14-0.212,0.128-0.237l5.642-5.822 c0.271-0.28,0.655-0.888,0.666-1.249C34.124,15.103,33.969,14.535,33.554,14.133z" opacity=".1"></path><path fill="#ff7b7b" d="M33.38,14.312C33.38,14.312,33.38,14.311,33.38,14.312 c-0.423-0.41-1.04-0.495-1.52-0.263c-0.221,0.026-0.85,0.553-1.016,0.724l-5.607,5.785c-0.077-0.019-0.289,0.106-0.365,0.096 C22.684,20.032,20.5,21.712,20.5,24c0,2.401,2.395,4.131,4.692,3.268l3.961,3.324c0.173,0.145,0.829,0.606,1.043,0.63 c0.613,0.257,1.369,0.094,1.84-0.467c0.449-0.535,0.49-1.276,0.159-1.82c-0.051-0.232-0.717-0.903-0.913-1.068l-3.668-3.079 c0.009-0.031-0.158-0.266-0.143-0.374c0.06-0.459,0.027-0.972-0.151-1.484c-0.018-0.047,0.067-0.205,0.043-0.254l5.564-5.741 c0.181-0.187,0.76-0.926,0.767-1.167C33.895,15.298,33.789,14.708,33.38,14.312z" opacity=".15"></path><path fill="#ff7b7b" d="M33.206,14.492C33.206,14.491,33.206,14.491,33.206,14.492 c-0.41-0.397-1.035-0.435-1.467-0.121c-0.111,0.013-0.84,0.705-0.923,0.79l-5.442,5.615c-0.038-0.01-0.28,0.193-0.318,0.188 C22.942,20.189,20.75,21.792,20.75,24c0,2.275,2.319,3.905,4.491,2.983l3.849,3.229c0.087,0.073,0.863,0.679,0.97,0.691 c0.566,0.347,1.331,0.231,1.785-0.309c0.442-0.527,0.429-1.285,0.004-1.775c-0.025-0.116-0.899-0.905-0.997-0.988l-3.608-3.028 c0.013-0.046-0.046-0.238-0.022-0.401c0.055-0.4,0.042-0.91-0.16-1.46c-0.027-0.07-0.005-0.197-0.042-0.271l5.486-5.661 c0.09-0.093,0.866-0.964,0.869-1.084C33.667,15.493,33.609,14.882,33.206,14.492z" opacity=".2"></path><path fill="#ff7b7b" d="M33.032,14.671c-0.397-0.384-1.03-0.374-1.414,0.022l-6.379,6.582 C23.2,20.345,21,21.872,21,24c0,2.149,2.243,3.679,4.29,2.698l4.633,3.887c0.52,0.436,1.294,0.368,1.73-0.151 c0.436-0.52,0.368-1.294-0.151-1.73l-4.629-3.884c0.049-0.172,0.351-1.052-0.198-2.151l6.38-6.583 C33.439,15.688,33.429,15.055,33.032,14.671z" opacity=".4"></path></g><path fill="#fff" d="M33.032,14.671c-0.397-0.384-1.03-0.374-1.414,0.022l-6.379,6.582C24.861,21.102,24.443,21,24,21 c-1.657,0-3,1.343-3,3s1.343,3,3,3c0.464,0,0.898-0.114,1.29-0.302l4.633,3.887c0.52,0.436,1.294,0.368,1.73-0.151 c0.436-0.52,0.368-1.294-0.151-1.73l-4.629-3.884C26.947,24.557,27,24.286,27,24c0-0.481-0.124-0.929-0.325-1.332l6.38-6.583 C33.439,15.688,33.429,15.055,33.032,14.671z M24,25c-0.552,0-1-0.448-1-1c0-0.552,0.448-1,1-1c0.552,0,1,0.448,1,1 C25,24.552,24.552,25,24,25z"></path><path fill="#ff7b7b" d="M13,25h-3c-0.552,0-1-0.448-1-1v0c0-0.552,0.448-1,1-1h3c0.552,0,1,0.448,1,1v0 C14,24.552,13.552,25,13,25z" opacity=".2"></path><path fill="#ff7b7b" d="M38,25h-3c-0.552,0-1-0.448-1-1v0c0-0.552,0.448-1,1-1h3c0.552,0,1,0.448,1,1v0 C39,24.552,38.552,25,38,25z" opacity=".2"></path><path fill="#ff7b7b" d="M25,35v3c0,0.552-0.448,1-1,1h0c-0.552,0-1-0.448-1-1v-3c0-0.552,0.448-1,1-1h0 C24.552,34,25,34.448,25,35z" opacity=".2"></path><path fill="#ff7b7b" d="M25,10v3c0,0.552-0.448,1-1,1h0c-0.552,0-1-0.448-1-1v-3c0-0.552,0.448-1,1-1h0 C24.552,9,25,9.448,25,10z" opacity=".2"></path></g></g></svg>